{
	"asset":{
		"generator":"Khronos glTF Blender I/O v4.2.70",
		"version":"2.0"
	},
	"scene":0,
	"scenes":[
		{
			"name":"Scene",
			"nodes":[
				0,
				1
			]
		}
	],
	"nodes":[
		{
			"mesh":0,
			"name":"path212",
			"rotation":[
				0.7071070671081543,
				0,
				0,
				0.7071065902709961
			],
			"scale":[
				10,
				10,
				10
			]
		},
		{
			"mesh":1,
			"name":"path212.001",
			"rotation":[
				0.7071070671081543,
				0,
				0,
				0.7071065902709961
			],
			"scale":[
				10,
				10,
				10
			],
			"translation":[
				0,
				0,
				0.001878148759715259
			]
		}
	],
	"materials":[
		{
			"doubleSided":true,
			"name":"Nero",
			"pbrMetallicRoughness":{
				"baseColorFactor":[
					0,
					0,
					0,
					1
				],
				"metallicFactor":0
			}
		},
		{
			"doubleSided":true,
			"name":"Bianco",
			"pbrMetallicRoughness":{
				"metallicFactor":0,
				"roughnessFactor":0.5
			}
		}
	],
	"meshes":[
		{
			"name":"path212",
			"primitives":[
				{
					"attributes":{
						"POSITION":0,
						"NORMAL":1,
						"TEXCOORD_0":2
					},
					"indices":3,
					"material":0
				}
			]
		},
		{
			"name":"path212.001",
			"primitives":[
				{
					"attributes":{
						"POSITION":4,
						"NORMAL":5,
						"TEXCOORD_0":6
					},
					"indices":7,
					"material":1
				}
			]
		}
	],
	"accessors":[
		{
			"bufferView":0,
			"componentType":5126,
			"count":392,
			"max":[
				0.10000000149011612,
				0.004999999888241291,
				0.10000000149011612
			],
			"min":[
				-0.10000000149011612,
				-0.004999999888241291,
				-0.10000000149011612
			],
			"type":"VEC3"
		},
		{
			"bufferView":1,
			"componentType":5126,
			"count":392,
			"type":"VEC3"
		},
		{
			"bufferView":2,
			"componentType":5126,
			"count":392,
			"type":"VEC2"
		},
		{
			"bufferView":3,
			"componentType":5123,
			"count":1164,
			"type":"SCALAR"
		},
		{
			"bufferView":4,
			"componentType":5126,
			"count":594,
			"max":[
				0.019866321235895157,
				0.004999999888241291,
				0.019862186163663864
			],
			"min":[
				-0.022956959903240204,
				-0.004999999888241291,
				-0.0229521282017231
			],
			"type":"VEC3"
		},
		{
			"bufferView":5,
			"componentType":5126,
			"count":594,
			"type":"VEC3"
		},
		{
			"bufferView":6,
			"componentType":5126,
			"count":594,
			"type":"VEC2"
		},
		{
			"bufferView":7,
			"componentType":5123,
			"count":1740,
			"type":"SCALAR"
		}
	],
	"bufferViews":[
		{
			"buffer":0,
			"byteLength":4704,
			"byteOffset":0,
			"target":34962
		},
		{
			"buffer":0,
			"byteLength":4704,
			"byteOffset":4704,
			"target":34962
		},
		{
			"buffer":0,
			"byteLength":3136,
			"byteOffset":9408,
			"target":34962
		},
		{
			"buffer":0,
			"byteLength":2328,
			"byteOffset":12544,
			"target":34963
		},
		{
			"buffer":0,
			"byteLength":7128,
			"byteOffset":14872,
			"target":34962
		},
		{
			"buffer":0,
			"byteLength":7128,
			"byteOffset":22000,
			"target":34962
		},
		{
			"buffer":0,
			"byteLength":4752,
			"byteOffset":29128,
			"target":34962
		},
		{
			"buffer":0,
			"byteLength":3480,
			"byteOffset":33880,
			"target":34963
		}
	],
	"buffers":[
		{
			"byteLength":37360,
			"uri":"A01.bin"
		}
	]
}
